<?xml version="1.0" encoding="UTF-8" standalone="no"?>
<!DOCTYPE svg PUBLIC "-//W3C//DTD SVG 1.1//EN" "http://www.w3.org/Graphics/SVG/1.1/DTD/svg11.dtd">
<svg xmlns="http://www.w3.org/2000/svg" version="1.1" viewBox="0.00 0.00 213.00 213.00">
<path fill="#7b6bc9" d="
  M 101.90 197.41
  C 76.15 188.91 44.60 171.91 37.55 143.21
  C 32.06 120.85 47.69 98.12 61.87 82.77
  C 74.61 68.97 87.56 52.20 91.63 33.44
  C 93.42 25.20 93.10 14.79 87.52 7.93
  A 0.23 0.22 84.6 0 1 87.80 7.59
  C 99.15 13.65 110.87 21.39 119.36 30.47
  C 137.52 49.87 145.00 73.84 137.30 99.77
  C 131.85 118.15 122.83 131.45 111.55 146.57
  Q 94.93 168.85 102.85 196.49
  A 0.75 0.75 0.0 0 1 101.90 197.41
  Z"
/>
<path fill="#876ac5" d="
  M 149.11 86.93
  Q 149.30 84.36 148.72 82.03
  A 0.29 0.29 0.0 0 1 149.26 81.82
  Q 153.20 88.72 156.67 95.54
  C 170.63 122.99 169.37 154.32 142.47 173.45
  Q 127.52 184.07 113.15 195.16
  A 0.56 0.56 0.0 0 1 112.28 194.89
  C 103.57 167.68 124.52 152.72 136.02 131.70
  Q 147.39 110.93 149.11 86.93
  Z"
/>
</svg>
